<?xml version="1.0" encoding="UTF-8" standalone="no"?>
<!DOCTYPE svg PUBLIC "-//W3C//DTD SVG 1.1//EN" "http://www.w3.org/Graphics/SVG/1.1/DTD/svg11.dtd">
<svg width="100%" height="100%" viewBox="0 0 1024 1024" version="1.1" xmlns="http://www.w3.org/2000/svg" xmlns:xlink="http://www.w3.org/1999/xlink" xml:space="preserve" xmlns:serif="http://www.serif.com/" style="fill-rule:evenodd;clip-rule:evenodd;stroke-linejoin:round;stroke-miterlimit:2;">
    <g transform="matrix(2.69381,0,0,2.69381,-1678.1,-600.499)">
        <g transform="matrix(4.44117,0,0,4.44117,220.041,260.45)">
            <path d="M164.52,44.67L139.73,69.46C137.557,71.666 134.073,71.981 131.54,70.2C129.841,68.936 128.85,66.928 128.88,64.81L128.88,55.41C128.886,55.236 128.817,55.069 128.69,54.95L111.16,37.42C110.722,36.985 110.476,36.392 110.476,35.775C110.476,35.158 110.722,34.565 111.16,34.13L112.16,33.13C113.062,32.236 114.538,32.236 115.44,33.13L128.33,46C128.39,46.062 128.473,46.098 128.56,46.098C128.736,46.098 128.88,45.953 128.88,45.778C128.88,45.775 128.88,45.773 128.88,45.77L128.88,37.6C128.882,37.432 128.818,37.27 128.7,37.15L120.06,28.51C119.623,28.076 119.377,27.486 119.377,26.87C119.377,26.254 119.623,25.664 120.06,25.23L121.25,24C121.684,23.563 122.274,23.317 122.89,23.317C123.506,23.317 124.096,23.563 124.53,24L128.33,27.8C128.39,27.862 128.473,27.898 128.56,27.898C128.736,27.898 128.88,27.753 128.88,27.578C128.88,27.575 128.88,27.573 128.88,27.57L128.88,17.57C128.88,16.292 129.932,15.24 131.21,15.24L133,15.24C134.273,15.24 135.32,16.287 135.32,17.56C135.32,17.563 135.32,17.567 135.32,17.57L135.32,27.61C135.32,27.613 135.32,27.615 135.32,27.618C135.32,27.793 135.464,27.938 135.64,27.938C135.727,27.938 135.81,27.902 135.87,27.84L139.67,24.04C140.106,23.575 140.717,23.311 141.354,23.311C141.973,23.311 142.566,23.559 143,24L144.19,25.19C144.627,25.624 144.873,26.214 144.873,26.83C144.873,27.446 144.627,28.036 144.19,28.47L135.56,37.11C135.44,37.229 135.371,37.391 135.37,37.56L135.37,45.83C135.37,45.833 135.37,45.835 135.37,45.838C135.37,46.013 135.514,46.158 135.69,46.158C135.777,46.158 135.86,46.122 135.92,46.06L148.85,33.13C149.284,32.693 149.874,32.447 150.49,32.447C151.106,32.447 151.696,32.693 152.13,33.13L153.32,34.32C153.757,34.754 154.003,35.344 154.003,35.96C154.003,36.576 153.757,37.166 153.32,37.6L135.53,55.4C135.411,55.524 135.343,55.688 135.34,55.86L135.34,64C135.341,64.175 135.485,64.318 135.66,64.318C135.747,64.318 135.83,64.282 135.89,64.22L160.05,40.07C161.14,38.981 161.753,37.501 161.753,35.96C161.753,34.419 161.14,32.939 160.05,31.85L136.22,8.06C133.961,5.815 130.259,5.815 128,8.06L104.18,31.89C103.09,32.979 102.477,34.459 102.477,36C102.477,37.541 103.09,39.021 104.18,40.11L122.3,58.23C122.724,58.654 122.962,59.23 122.96,59.83L123.01,65.17C123.01,65.18 123.01,65.19 123.01,65.2C123.01,65.837 122.487,66.36 121.85,66.36C121.533,66.36 121.229,66.23 121.01,66L99.7,44.67C97.401,42.372 96.108,39.251 96.108,36C96.108,32.749 97.401,29.628 99.7,27.33L123.44,3.59C125.738,1.291 128.859,-0.002 132.11,-0.002C135.361,-0.002 138.482,1.291 140.78,3.59L164.52,27.33C166.819,29.628 168.112,32.749 168.112,36C168.112,39.251 166.819,42.372 164.52,44.67Z" style="fill:rgb(16,148,75);fill-rule:nonzero;"/>
        </g>
        <g id="g3355" transform="matrix(1.93569,0,0,1.93569,824.295,-1633.56)">
            <path id="path3515" d="M80,1012.36C80,1034.45 62.091,1052.36 40,1052.36C17.909,1052.36 0,1034.45 0,1012.36C0,990.271 17.909,972.362 40,972.362C62.091,972.362 80,990.271 80,1012.36" style="fill:rgb(204,93,51);fill-rule:nonzero;stroke:white;stroke-width:3.64px;"/>
            <g id="g3541">
            </g>
            <g id="path4488" transform="matrix(1,0,0,1,-3.06254,968.601)">
                <path d="M66.806,39.029L29.216,66.246L36.353,78.287C62.069,80.968 75.053,63.827 77.189,51.499L66.806,39.029Z" style="fill-opacity:0.19;"/>
            </g>
            <path id="path3555" d="M31.105,1038.24C30.248,1038.24 29.392,1038.02 28.622,1037.58C27.085,1036.69 26.14,1035.05 26.14,1033.28L26.14,990.485C26.14,988.709 27.085,987.071 28.622,986.185C30.159,985.296 32.051,985.296 33.587,986.185L63.378,1007.58C64.915,1008.47 65.86,1010.11 65.86,1011.88C65.86,1013.65 64.915,1015.29 63.378,1016.18L33.587,1037.58C32.818,1038.02 31.961,1038.24 31.105,1038.24" style="fill:white;fill-rule:nonzero;"/>
        </g>
    </g>
</svg>
